<?xml version="1.0" standalone="no"?>
<!DOCTYPE svg PUBLIC "-//W3C//DTD SVG 20010904//EN"
 "http://www.w3.org/TR/2001/REC-SVG-20010904/DTD/svg10.dtd">
<svg version="1.0" xmlns="http://www.w3.org/2000/svg"
 width="170.000000pt" height="168.000000pt" viewBox="0 0 170.000000 168.000000"
 preserveAspectRatio="xMidYMid meet">

<g transform="translate(0.000000,168.000000) scale(0.100000,-0.100000)"
fill="#000000" stroke="none">
<path d="M527 1516 c-153 -62 -291 -120 -307 -129 -15 -9 -35 -32 -44 -51 -15
-32 -126 -501 -126 -533 0 -23 47 -63 75 -63 l25 0 0 -272 c0 -243 2 -277 19
-313 22 -50 69 -91 119 -105 50 -14 1064 -14 1114 0 48 14 94 53 118 101 18
35 20 60 20 314 l0 275 23 0 c26 1 49 17 66 47 9 19 2 64 -45 270 -31 136 -62
262 -70 278 -8 17 -29 40 -47 51 -57 38 -591 244 -628 243 -19 0 -159 -51
-312 -113z m600 -92 c148 -59 277 -115 287 -125 13 -12 33 -79 67 -226 27
-114 48 -214 49 -220 0 -7 -9 -13 -21 -13 -11 0 -29 -5 -40 -10 -18 -10 -19
-24 -19 -306 0 -242 -3 -300 -15 -324 -26 -51 -50 -60 -152 -60 l-93 0 0 266
c0 163 -4 273 -10 285 -25 45 -53 49 -335 49 -282 0 -310 -4 -335 -49 -6 -12
-10 -122 -10 -285 l0 -266 -94 0 c-108 0 -138 15 -156 78 -6 21 -10 157 -10
319 0 269 -1 283 -19 293 -11 5 -29 10 -40 10 -12 0 -21 4 -21 8 0 5 22 107
49 227 38 169 53 220 67 229 34 20 549 225 566 226 10 0 138 -48 285 -106z
m-27 -994 c0 -116 -3 -210 -8 -210 -4 0 -102 94 -217 210 l-210 210 218 0 217
0 0 -210z m-285 -80 l210 -210 -218 0 -217 0 0 210 c0 116 3 210 8 210 4 0
102 -94 217 -210z"/>
<path d="M714 1274 c-53 -26 -64 -58 -64 -184 0 -173 26 -200 195 -200 169 0
195 27 195 200 0 127 -12 159 -66 185 -44 21 -217 20 -260 -1z m230 -100 c8
-20 8 -148 0 -168 -5 -13 -24 -16 -99 -16 -106 0 -105 -1 -105 100 0 101 -1
100 105 100 75 0 94 -3 99 -16z"/>
</g>
</svg>
