<?xml version="1.0" standalone="no"?>
<!DOCTYPE svg PUBLIC "-//W3C//DTD SVG 20010904//EN"
 "http://www.w3.org/TR/2001/REC-SVG-20010904/DTD/svg10.dtd">
<svg version="1.0" xmlns="http://www.w3.org/2000/svg"
 width="152.000000pt" height="159.000000pt" viewBox="0 0 152.000000 159.000000"
 preserveAspectRatio="xMidYMid meet">

<g transform="translate(0.000000,159.000000) scale(0.100000,-0.100000)"
fill="#000000" stroke="none">
<path d="M376 1518 c-11 -16 -16 -46 -16 -100 l0 -78 -57 0 c-86 0 -132 -17
-179 -64 -32 -31 -44 -54 -53 -94 -15 -73 -15 -911 0 -984 14 -65 73 -130 134
-147 27 -7 211 -11 565 -11 l525 0 52 24 c36 17 60 38 80 67 l28 43 0 516 0
516 -28 43 c-39 59 -109 91 -199 91 l-68 0 0 84 c0 89 -11 116 -50 116 -34 0
-50 -38 -50 -122 l0 -78 -300 0 -300 0 0 84 c0 64 -4 88 -16 100 -22 22 -50
20 -68 -6z m953 -307 l31 -29 0 -492 0 -492 -31 -29 -31 -29 -535 0 -535 0
-34 34 -34 34 0 482 0 482 34 34 34 34 535 0 535 0 31 -29z"/>
<path d="M545 926 c-59 -22 -110 -82 -124 -143 -29 -138 90 -311 284 -413 45
-24 60 -27 81 -19 91 34 251 178 294 264 19 39 25 66 25 121 0 92 -31 144
-108 180 -67 31 -120 31 -185 -2 l-52 -26 -35 22 c-45 28 -128 35 -180 16z
m155 -121 c48 -40 79 -44 106 -14 51 56 125 65 173 20 36 -33 41 -84 16 -144
-19 -47 -102 -136 -170 -182 -55 -38 -55 -38 -89 -22 -57 27 -176 146 -202
202 -33 70 -31 100 10 141 48 48 98 48 156 -1z"/>
</g>
</svg>
