<?xml version="1.0" standalone="no"?>
<!DOCTYPE svg PUBLIC "-//W3C//DTD SVG 20010904//EN"
 "http://www.w3.org/TR/2001/REC-SVG-20010904/DTD/svg10.dtd">
<svg version="1.0" xmlns="http://www.w3.org/2000/svg"
 width="173.000000pt" height="179.000000pt" viewBox="0 0 173.000000 179.000000"
 preserveAspectRatio="xMidYMid meet">

<g transform="translate(0.000000,179.000000) scale(0.100000,-0.100000)"
fill="#000000" stroke="none">
<path d="M826 1718 c-10 -14 -16 -44 -16 -75 l0 -53 -69 0 c-74 0 -101 -14
-101 -50 0 -36 27 -50 101 -50 l69 0 0 -87 0 -88 -194 -118 c-107 -65 -202
-127 -211 -137 -25 -28 -44 -89 -45 -142 l0 -47 -101 -52 c-197 -101 -194 -94
-194 -410 l0 -245 28 -43 c19 -28 43 -49 72 -62 42 -19 70 -19 714 -17 l669 3
39 31 c70 56 73 69 73 337 0 315 5 304 -197 406 l-103 51 0 61 c0 44 -6 72
-21 99 -23 40 -22 40 -264 188 l-160 97 -3 88 -3 87 75 0 c70 0 77 2 92 25 15
23 15 27 0 50 -15 23 -23 25 -91 25 l-75 0 0 59 c0 63 -15 91 -50 91 -10 0
-26 -10 -34 -22z m235 -607 l194 -119 3 -426 2 -426 -99 0 -100 0 -3 183 c-3
182 -3 184 -31 226 -30 45 -109 91 -157 91 -53 0 -106 -23 -146 -64 -53 -53
-64 -102 -64 -291 l0 -145 -100 0 -100 0 0 414 c0 380 1 415 18 434 14 18 366
239 383 241 3 1 93 -52 200 -118z m-701 -661 l0 -310 -69 0 c-129 0 -131 4
-131 274 0 113 4 216 10 230 7 18 35 38 97 70 48 25 89 45 91 45 1 1 2 -138 2
-309z m1181 214 c18 -16 19 -36 19 -247 0 -223 -1 -231 -22 -254 -19 -20 -31
-23 -100 -23 l-78 0 0 310 0 309 81 -39 c45 -22 90 -47 100 -56z m-612 -153
l31 -29 0 -171 0 -171 -100 0 -100 0 0 166 0 166 34 34 c45 45 91 46 135 5z"/>
</g>
</svg>
