<?xml version="1.0" standalone="no"?>
<!DOCTYPE svg PUBLIC "-//W3C//DTD SVG 20010904//EN"
 "http://www.w3.org/TR/2001/REC-SVG-20010904/DTD/svg10.dtd">
<svg version="1.0" xmlns="http://www.w3.org/2000/svg"
 width="2498.000000pt" height="183.000000pt" viewBox="0 0 2498.000000 183.000000"
 preserveAspectRatio="xMidYMid meet">

<g transform="translate(0.000000,183.000000) scale(0.100000,-0.100000)"
fill="#000000" stroke="none">
<path d="M3331 1599 c-12 -28 -2 -69 18 -69 5 0 6 -11 3 -25 -2 -14 0 -25 5
-25 19 0 43 37 43 66 -1 24 -2 26 -11 12 -16 -28 -30 -22 -19 7 8 20 6 29 -8
43 -18 18 -19 18 -31 -9z"/>
<path d="M3977 1589 c-19 -22 -15 -60 10 -81 12 -10 18 -9 29 7 16 22 19 65 4
65 -5 0 -10 7 -10 15 0 20 -11 18 -33 -6z"/>
<path d="M584 1464 c1 -105 4 -125 20 -143 11 -12 25 -21 33 -21 23 0 14 48
-17 83 -26 31 -30 41 -33 118 -2 53 -3 39 -3 -37z"/>
<path d="M652 1542 c-1 -29 -7 -63 -14 -75 -11 -21 -11 -21 -20 -2 -7 17 -8
16 -3 -5 2 -14 5 -32 5 -40 0 -8 9 -26 19 -39 l18 -24 16 24 c24 38 30 79 12
79 -16 0 -23 22 -28 90 -3 45 -4 45 -5 -8z"/>
<path d="M3290 1549 c0 -26 25 -69 41 -69 19 0 8 47 -16 70 l-25 23 0 -24z"/>
<path d="M3930 1517 c0 -46 34 -85 71 -81 13 1 28 3 32 3 11 1 37 66 37 92 l0
22 -26 -24 c-14 -13 -31 -35 -36 -49 -10 -24 -10 -24 -19 -5 -4 11 -20 34 -34
50 l-25 30 0 -38z"/>
<path d="M16012 1518 c-7 -7 -12 -23 -12 -36 0 -21 -2 -22 -15 -12 -12 10 -15
9 -15 -6 0 -11 4 -26 10 -34 6 -9 5 -17 -2 -22 -9 -5 -9 -13 0 -32 8 -17 8
-26 0 -28 -13 -5 8 -73 30 -100 7 -9 12 -29 10 -45 -3 -27 -4 -26 -30 22 -14
28 -36 61 -48 75 -19 23 -19 21 3 -20 14 -25 30 -63 37 -85 7 -22 20 -45 29
-52 24 -18 3 -22 -124 -27 -60 -3 -110 -5 -110 -6 0 0 -31 -3 -70 -5 -38 -2
-104 -7 -145 -10 -41 -4 -88 -7 -105 -7 -16 0 -37 -2 -45 -5 -19 -6 -104 -14
-147 -13 -18 0 -33 -3 -33 -8 0 -4 -21 -8 -48 -9 -48 -2 -110 -8 -172 -17 -19
-3 -55 -8 -80 -11 -25 -3 -56 -8 -70 -10 -14 -3 -41 -7 -60 -9 -19 -2 -46 -7
-60 -10 -14 -3 -47 -8 -74 -11 -27 -3 -52 -8 -55 -9 -3 -2 -33 -7 -66 -11 -32
-3 -64 -9 -69 -13 -6 -3 -22 -7 -36 -8 -14 -2 -41 -6 -60 -10 -19 -4 -44 -8
-55 -10 -11 -1 -31 -5 -45 -9 -14 -3 -50 -10 -80 -16 -75 -14 -93 -17 -110
-22 -8 -2 -33 -8 -55 -12 -55 -12 -54 -12 -60 -15 -3 -1 -14 -4 -25 -5 -11 -1
-21 -4 -22 -5 -2 -1 -12 -4 -23 -6 -11 -2 -38 -8 -60 -14 -22 -5 -58 -13 -80
-16 -22 -3 -46 -11 -52 -16 -7 -6 -13 -8 -13 -5 0 5 -64 -13 -100 -27 -13 -5
-14 9 -10 111 4 105 7 121 28 141 31 31 28 46 -6 26 -27 -15 -31 -15 -55 1
-34 22 -34 12 -2 -27 19 -23 25 -41 25 -79 0 -27 -4 -49 -10 -49 -5 0 -10 6
-10 14 0 30 -72 154 -111 191 l-43 40 28 -38 c31 -43 96 -178 96 -201 0 -8 12
-28 26 -45 17 -20 24 -40 22 -58 -3 -26 -9 -29 -107 -55 -57 -15 -107 -30
-110 -35 -3 -4 -13 -10 -21 -11 -80 -19 -146 -37 -150 -41 -3 -3 -14 -7 -25
-9 -63 -8 -80 -13 -83 -22 -2 -6 -7 -8 -12 -5 -5 3 -21 0 -37 -6 -25 -9 -67
-19 -145 -35 -28 -5 -28 -5 -28 49 0 36 5 59 15 67 21 17 19 33 -3 21 -11 -6
-24 -6 -35 0 -13 8 -15 6 -11 -6 3 -8 10 -15 15 -15 5 0 9 -19 9 -42 l-1 -43
-29 61 c-16 33 -39 69 -51 80 -18 16 -17 10 9 -36 16 -30 33 -66 37 -80 4 -14
14 -32 22 -42 15 -17 6 -29 -27 -35 -8 -2 -26 -5 -40 -8 -14 -3 -42 -8 -62
-11 -21 -3 -38 -9 -38 -13 0 -4 -8 -7 -17 -8 -10 0 -31 -3 -48 -6 -16 -3 -48
-9 -70 -12 -22 -4 -44 -9 -48 -12 -4 -2 -24 -7 -45 -9 -20 -3 -65 -11 -100
-19 -35 -8 -77 -17 -95 -19 -18 -3 -57 -10 -87 -16 -65 -13 -83 -17 -170 -29
-36 -6 -74 -12 -85 -14 -11 -3 -45 -8 -75 -12 -30 -4 -64 -9 -75 -12 -23 -5
-75 -12 -125 -17 -40 -4 -136 -17 -163 -22 -10 -2 -53 -6 -95 -10 -42 -3 -79
-8 -82 -9 -3 -2 -50 -6 -105 -10 -55 -3 -107 -8 -115 -10 -14 -4 -138 -14
-250 -19 -25 -2 -103 -6 -175 -11 -71 -4 -148 -8 -170 -9 l-40 -1 -3 51 c-2
36 1 54 13 64 24 20 18 31 -10 18 -19 -9 -28 -9 -37 0 -9 9 -5 12 18 12 36 0
54 16 54 47 0 30 -14 29 -37 -2 l-18 -25 -12 25 c-10 23 -9 25 16 25 33 0 51
17 51 47 0 30 -14 29 -37 -2 l-18 -25 -11 24 c-10 22 -9 24 12 21 29 -3 50 20
58 65 l7 35 -36 -39 c-19 -22 -35 -34 -35 -27 0 7 -12 27 -27 45 l-26 31 8
-40 c5 -22 8 -73 7 -112 0 -40 3 -75 8 -78 5 -3 7 -12 4 -19 -3 -7 2 -19 11
-26 9 -8 15 -29 15 -59 l-1 -46 -19 40 -20 40 3 -45 2 -45 -42 -1 c-24 -1 -43
0 -43 3 0 2 7 17 15 33 21 40 10 38 -15 -2 -26 -44 -46 -43 -75 2 -33 52 -49
60 -22 11 12 -22 19 -43 15 -47 -11 -11 -480 -4 -803 12 -133 6 -145 7 -275
18 -41 3 -106 9 -145 11 -107 8 -207 18 -300 30 -27 4 -70 8 -95 11 -25 2 -61
6 -80 9 -19 2 -58 6 -85 9 -28 2 -62 7 -75 10 -33 7 -96 17 -140 21 -69 7
-151 20 -195 31 -5 1 -30 5 -55 9 -25 4 -52 9 -60 10 -8 2 -26 4 -40 4 -46 2
-53 13 -51 92 1 48 6 78 16 89 19 21 19 36 0 20 -9 -7 -25 -10 -42 -5 -26 6
-27 6 -10 -13 10 -11 17 -34 17 -58 l-1 -39 -29 60 c-16 33 -43 74 -61 90
l-32 30 35 -51 c19 -28 40 -72 48 -98 7 -25 19 -51 26 -57 8 -6 14 -18 14 -26
0 -17 -4 -16 -177 13 l-103 18 0 76 c0 64 3 80 20 95 28 26 25 40 -5 21 -23
-15 -27 -15 -51 1 -27 17 -27 17 -15 -4 6 -12 16 -25 21 -28 6 -3 10 -30 10
-58 l0 -52 -35 70 c-35 72 -89 145 -107 145 -5 0 2 -14 16 -31 33 -39 50 -71
80 -153 27 -75 30 -73 -71 -50 -37 8 -79 17 -93 19 -26 5 -89 19 -154 36 -54
15 -78 20 -101 24 -11 2 -21 4 -22 5 -4 3 -13 6 -58 14 -22 5 -59 14 -82 22
-23 7 -52 16 -65 18 -13 3 -39 10 -58 16 -19 6 -46 13 -59 16 -14 3 -29 8 -35
12 -6 3 -15 7 -21 8 -5 1 -62 14 -125 29 -145 34 -201 47 -220 49 -9 1 -21 6
-28 10 -7 4 -16 6 -19 3 -2 -3 -24 0 -48 8 -24 7 -46 11 -48 9 -2 -3 -17 0
-32 6 -15 6 -44 13 -64 16 -43 7 -64 12 -71 15 -3 1 -9 3 -15 4 -128 21 -162
27 -175 32 -21 9 -19 8 -80 17 -30 4 -62 9 -70 11 -8 1 -33 6 -55 9 -22 4 -56
11 -75 16 -19 5 -51 11 -70 14 -19 2 -63 10 -98 16 -35 6 -68 10 -75 9 -7 -1
-19 0 -27 4 -15 6 -127 25 -190 33 -19 2 -69 9 -110 15 -41 7 -93 13 -115 14
-22 2 -40 4 -40 5 0 1 -13 4 -30 5 -16 2 -50 6 -75 10 -25 3 -65 8 -90 11 -25
2 -60 6 -79 9 -18 3 -63 8 -100 11 -36 3 -84 8 -106 10 -22 2 -69 7 -105 10
-36 3 -78 7 -95 9 -16 2 -35 4 -42 4 -12 1 -7 15 39 110 l28 56 -36 -40 c-19
-22 -41 -59 -47 -82 -15 -56 -27 -55 -27 3 0 31 7 54 20 71 24 31 21 38 -12
22 -19 -8 -31 -8 -47 0 -27 15 -27 4 0 -25 15 -16 20 -32 17 -65 l-3 -44 -32
65 c-33 67 -87 140 -104 140 -5 0 6 -21 25 -48 19 -26 44 -71 55 -100 l21 -53
-108 7 c-59 3 -120 6 -136 7 l-30 2 1 76 c0 42 3 88 7 103 8 33 -7 33 -33 -1
-12 -14 -24 -23 -27 -20 -3 3 4 15 15 26 24 24 27 47 7 66 -12 12 -16 11 -31
-5 -13 -14 -14 -23 -5 -39 13 -26 -4 -29 -19 -3 -9 14 -10 12 -11 -15 0 -17 5
-35 11 -39 8 -4 7 -9 -2 -15 -11 -6 -11 -14 -2 -39 7 -20 8 -30 1 -30 -6 0 -8
-12 -5 -30 5 -24 3 -30 -10 -30 -9 0 -25 8 -36 17 -11 10 -17 12 -13 6 9 -17
-2 -35 -16 -27 -6 4 -41 8 -77 9 -36 2 -69 3 -73 4 -15 2 -9 134 7 151 9 10
18 28 21 41 3 13 8 35 11 48 8 32 -17 24 -37 -13 -13 -22 -13 -28 -1 -35 19
-12 -4 -24 -32 -15 -21 6 -21 6 -4 -13 11 -12 17 -36 17 -64 l0 -44 -34 70
c-19 39 -47 81 -62 95 -28 26 -26 19 13 -39 12 -18 31 -58 40 -88 10 -31 23
-58 30 -60 7 -3 13 -13 13 -22 0 -15 -35 -16 -383 -17 -357 -1 -575 -6 -742
-19 -63 -5 -92 -8 -215 -20 -77 -7 -157 -15 -185 -20 -16 -2 -57 -7 -90 -10
-56 -5 -107 -12 -165 -22 -14 -3 -40 -5 -57 -4 -18 1 -33 -2 -33 -7 0 -4 -18
-7 -40 -7 l-40 0 0 56 c0 38 5 61 15 69 8 7 15 17 15 22 0 6 -7 5 -15 -2 -9
-7 -25 -10 -42 -5 -26 6 -27 6 -10 -13 10 -11 17 -34 17 -58 l-1 -39 -29 60
c-16 33 -43 74 -61 90 l-32 30 30 -42 c16 -23 37 -63 47 -90 9 -26 21 -56 26
-65 5 -9 6 -19 2 -21 -8 -5 -112 -24 -172 -31 -14 -2 -29 -4 -35 -6 -23 -6
-24 2 -4 41 25 50 8 42 -27 -12 -13 -21 -29 -39 -34 -39 -16 0 -12 36 5 50 9
7 14 18 12 24 -2 6 2 25 9 42 9 22 10 34 3 41 -8 8 -7 17 1 32 12 24 5 45 -13
34 -9 -5 -9 -3 -1 8 7 8 15 30 18 49 l7 35 -31 -33 -31 -33 -22 27 c-12 15
-25 35 -29 43 -4 10 -7 2 -7 -19 -1 -45 23 -80 55 -80 26 0 29 -7 15 -29 -7
-11 -14 -8 -34 15 -22 25 -26 27 -32 12 -4 -9 -2 -25 4 -36 7 -13 7 -22 -1
-30 -9 -9 -8 -19 2 -39 7 -16 13 -33 12 -39 -1 -6 5 -17 13 -24 15 -13 21 -60
7 -60 -4 0 -18 20 -30 44 -13 24 -38 57 -55 72 l-30 29 20 -30 c27 -40 65
-116 61 -121 -2 -2 -22 -6 -44 -10 -21 -3 -64 -13 -94 -21 -30 -8 -62 -15 -70
-15 -8 0 -22 -2 -30 -5 -18 -7 -34 -10 -77 -17 l-33 -6 0 73 c0 65 3 76 25 97
34 32 34 56 0 34 -21 -14 -30 -15 -52 -5 -35 16 -37 10 -8 -23 20 -23 25 -40
25 -83 0 -56 -13 -64 -25 -16 -11 46 -71 146 -109 182 -42 40 -48 33 -11 -11
32 -38 62 -95 86 -167 11 -30 27 -63 36 -73 15 -17 15 -18 -4 -18 -11 0 -23
-3 -27 -7 -3 -4 -17 -8 -29 -10 -29 -4 -109 -25 -122 -32 -11 -6 -13 -6 -70
-20 -172 -41 -375 -109 -375 -126 0 -12 10 -11 52 6 29 12 63 23 76 25 13 3
58 16 100 30 42 15 87 28 99 30 12 2 33 8 47 14 13 5 27 6 30 3 3 -4 6 -1 6 4
0 6 8 10 18 8 9 -1 28 2 42 7 14 5 32 11 40 13 26 6 94 23 117 30 19 6 23 3
24 -16 1 -20 2 -19 10 8 6 21 14 30 23 27 8 -3 53 4 101 15 47 12 101 23 118
26 18 3 50 11 72 16 28 8 40 8 43 0 2 -6 10 -18 18 -25 8 -8 14 -24 14 -35 0
-12 5 -21 10 -21 6 0 10 23 10 51 0 32 4 48 10 44 6 -4 16 -2 23 3 16 12 59
22 121 28 27 3 53 7 57 9 21 14 82 16 90 3 7 -10 11 -10 21 4 15 20 74 33 178
39 8 0 40 5 70 9 30 5 80 12 110 15 30 4 71 9 90 11 19 3 58 7 85 8 28 2 68 6
90 9 36 5 183 17 276 22 20 1 41 5 47 9 6 3 13 2 17 -4 4 -6 11 -8 16 -4 12 7
198 14 436 17 101 1 183 4 183 7 0 6 63 5 76 -1 5 -3 102 -5 216 -4 115 0 208
-3 208 -7 0 -3 12 -5 26 -3 33 3 49 -14 70 -77 9 -29 23 -59 31 -66 7 -7 14
-21 15 -30 1 -9 4 21 7 67 5 64 10 86 23 95 28 17 31 1 9 -43 -23 -45 -25 -51
-12 -51 4 0 17 22 28 48 l20 49 59 -4 c172 -9 185 -11 204 -28 11 -10 20 -29
20 -42 0 -12 5 -23 10 -23 6 0 10 18 10 39 l0 39 43 -3 c23 -2 78 -7 122 -10
44 -3 107 -10 140 -15 33 -5 96 -11 140 -15 44 -3 96 -8 115 -10 19 -3 58 -8
85 -11 73 -8 100 -12 100 -15 0 -1 16 -3 35 -5 19 -2 51 -6 70 -9 106 -16 200
-27 240 -29 25 0 47 -4 50 -8 5 -6 39 -13 115 -24 48 -6 368 -62 410 -70 17
-4 39 -8 50 -9 11 -1 27 -4 35 -8 8 -3 31 -8 50 -11 19 -2 35 -5 35 -6 0 -2
20 -6 67 -14 21 -3 59 -11 85 -17 52 -11 107 -20 138 -23 11 0 23 -5 26 -9 3
-5 20 -9 37 -9 18 -1 32 -4 32 -8 0 -4 6 -7 13 -8 53 -3 409 -83 417 -92 5 -7
88 -29 275 -76 55 -13 113 -29 128 -34 16 -5 35 -6 43 -3 8 3 14 1 14 -5 0 -5
11 -10 25 -11 47 -3 55 -4 55 -11 0 -4 24 -11 53 -15 28 -5 54 -9 57 -10 8 -2
83 -17 110 -22 14 -3 35 -6 48 -6 13 -1 22 -8 22 -19 0 -9 5 -20 10 -23 6 -3
10 1 10 10 0 19 10 18 145 -10 44 -9 89 -18 100 -19 11 -2 47 -9 81 -15 59
-11 134 -21 182 -24 12 -1 22 -5 22 -8 0 -6 59 -16 140 -25 19 -2 55 -7 80
-11 25 -3 56 -7 70 -8 23 -2 104 -14 140 -21 25 -5 224 -26 280 -29 19 -2 35
-4 35 -5 0 -1 18 -4 40 -6 22 -1 60 -5 85 -8 100 -11 260 -21 338 -21 45 0 82
-3 82 -6 0 -4 19 -6 43 -7 23 0 112 -3 197 -6 85 -4 266 -8 402 -9 178 -1 250
-5 259 -14 10 -10 15 -9 23 2 10 13 56 18 129 16 20 -1 27 -6 27 -21 0 -11 5
-20 10 -20 6 0 10 9 10 20 0 12 7 20 18 21 9 1 35 2 57 4 22 1 110 5 195 9 85
4 169 9 186 12 17 3 69 6 115 8 46 2 100 7 119 10 19 4 62 8 95 11 76 5 131
12 275 31 63 9 126 16 140 16 14 0 29 3 34 5 5 3 32 7 60 9 28 2 67 6 86 10
40 8 49 9 109 18 23 3 46 8 50 10 3 2 29 7 56 10 90 11 130 16 147 22 10 3 30
7 45 10 28 4 83 15 178 35 28 6 59 12 70 14 11 2 20 4 20 5 0 1 14 4 30 6 17
3 37 7 45 11 8 3 27 6 43 6 15 0 27 3 27 7 0 4 8 7 18 7 9 -1 33 2 52 6 66 15
205 49 220 54 8 3 22 7 30 8 35 6 78 16 130 31 30 8 73 20 95 25 22 6 69 19
105 30 36 11 72 22 80 25 8 2 49 15 90 30 41 14 86 27 100 29 28 3 226 53 250
62 13 5 39 10 88 15 6 1 12 5 12 10 0 5 4 7 9 4 4 -3 55 6 112 20 140 34 193
45 242 47 9 1 17 5 17 10 0 4 4 6 8 3 4 -3 26 -1 48 4 21 5 55 12 74 15 19 3
82 15 140 26 105 20 134 25 200 33 41 6 70 10 210 32 58 8 116 15 129 15 12
-1 27 2 33 5 5 3 37 7 72 9 34 1 76 5 92 8 43 9 146 20 173 18 13 0 30 4 37
10 11 9 14 8 14 0 0 -8 8 -10 23 -5 12 4 40 8 62 9 80 5 242 15 312 21 40 3
166 7 280 9 115 2 213 4 218 5 6 1 12 2 15 1 3 -1 101 -3 217 -4 117 -1 213
-4 213 -7 0 -3 57 -7 128 -8 215 -6 232 -7 232 -12 0 -3 39 -6 88 -8 48 -1 98
-5 112 -7 27 -5 72 -11 160 -20 57 -5 115 -12 159 -19 14 -3 54 -7 89 -11 48
-5 62 -11 62 -23 0 -14 2 -15 9 -3 8 12 22 13 98 2 48 -8 97 -15 108 -17 11
-3 40 -7 65 -11 66 -9 100 -29 100 -58 0 -14 5 -25 10 -25 6 0 10 14 10 30 0
29 1 30 38 24 53 -8 65 -10 82 -17 8 -3 29 -8 45 -11 86 -13 134 -28 138 -44
4 -15 5 -15 6 1 1 14 6 17 24 11 12 -4 34 -8 50 -8 15 -1 27 -4 27 -7 0 -5 55
-17 98 -21 6 -1 12 -5 12 -10 0 -4 3 -7 8 -6 12 2 81 -13 172 -37 47 -13 96
-26 110 -28 14 -3 38 -10 53 -16 16 -6 33 -9 38 -5 5 3 9 1 9 -4 0 -5 6 -9 13
-10 6 -1 23 -3 37 -4 14 -2 28 -7 31 -11 4 -5 18 -10 33 -10 14 -1 26 -5 26
-9 0 -5 3 -7 8 -6 4 1 51 -13 106 -30 54 -17 102 -29 106 -27 5 3 10 0 12 -5
2 -6 14 -12 28 -12 14 -1 27 -5 30 -9 3 -4 14 -9 25 -11 11 -1 22 -5 25 -8 6
-7 201 -70 213 -70 14 0 2 23 -14 26 -7 1 -27 8 -44 15 -16 6 -34 13 -40 14
-5 2 -50 17 -100 34 -49 18 -91 32 -92 32 -2 0 -8 1 -15 4 -7 2 -47 16 -88 30
-41 14 -75 25 -75 24 0 -1 -20 4 -45 11 -25 7 -49 13 -55 14 -5 1 -15 5 -21 8
-6 4 -21 9 -35 12 -13 3 -40 10 -59 16 -42 13 -255 69 -289 76 -14 3 -29 8
-34 11 -6 3 -20 7 -31 9 -30 3 -63 11 -129 28 -32 9 -63 14 -68 10 -5 -3 -9 0
-9 5 0 6 -11 11 -25 11 -23 0 -25 4 -25 43 0 24 5 48 12 55 6 6 13 17 14 24 2
7 6 23 10 36 8 27 -11 30 -28 3 -11 -18 -12 -18 -29 3 -9 11 -21 18 -25 14
-11 -12 14 -59 30 -56 8 2 15 -1 15 -7 0 -5 -7 -9 -15 -7 -16 3 -19 -14 -4
-23 6 -3 10 -21 10 -38 -1 -31 -2 -30 -29 23 -16 30 -39 64 -51 75 -18 16 -17
11 8 -30 17 -27 34 -63 38 -79 6 -26 5 -28 -11 -22 -11 4 -39 9 -64 12 -25 3
-50 9 -56 12 -5 4 -19 7 -30 8 -11 1 -39 5 -62 9 l-43 8 0 55 c0 43 5 61 22
79 26 27 16 44 -11 19 -18 -17 -21 -17 -45 -1 -31 20 -35 6 -6 -20 15 -14 20
-30 19 -69 l-1 -51 -24 54 c-31 67 -80 136 -111 156 -18 12 -14 3 16 -36 38
-50 87 -157 77 -167 -3 -2 -49 3 -103 12 -54 9 -114 19 -133 22 -72 10 -90 16
-90 30 0 8 -4 14 -9 14 -5 0 -14 15 -20 33 -6 18 -24 49 -40 68 l-30 34 35
-69 c19 -37 34 -74 34 -80 0 -9 -17 -10 -67 -4 -63 8 -84 11 -187 22 -22 3
-55 7 -75 10 -38 6 -133 14 -241 21 -36 2 -65 5 -65 5 0 1 -29 3 -65 6 -36 2
-83 6 -105 8 -22 2 -155 7 -295 11 -140 4 -279 8 -307 9 -29 0 -53 -3 -53 -7
0 -5 -5 -5 -12 -1 -11 7 -44 7 -248 0 -47 -2 -91 -1 -97 2 -15 5 -18 112 -5
127 17 21 35 89 24 93 -8 2 -8 11 0 28 9 19 9 27 0 32 -7 5 -8 13 -2 22 6 8
10 23 10 34 0 16 -2 17 -17 5 -15 -12 -16 -12 -11 7 7 28 -14 58 -30 42z m18
-78 c0 -5 -4 -10 -10 -10 -5 0 -10 5 -10 10 0 6 5 10 10 10 6 0 10 -4 10 -10z
m4 -38 c2 -4 0 -14 -5 -22 -8 -13 -10 -13 -18 0 -10 15 -6 30 9 30 5 0 11 -4
14 -8z m0 -60 c2 -4 0 -14 -5 -22 -8 -13 -10 -13 -18 0 -10 15 -6 30 9 30 5 0
11 -4 14 -8z m-4 -62 c0 -5 -4 -10 -10 -10 -5 0 -10 5 -10 10 0 6 5 10 10 10
6 0 10 -4 10 -10z m-12380 -17 c0 -5 -4 -14 -9 -22 -7 -11 -11 -9 -20 8 -10
18 -9 21 9 21 11 0 20 -3 20 -7z m-5 -63 c3 -5 2 -17 -3 -27 -9 -15 -11 -14
-20 4 -15 27 7 49 23 23z m-2565 -64 c0 -11 -13 -36 -19 -36 -3 0 -12 9 -19
20 -11 18 -10 20 13 20 14 0 25 -2 25 -4z m2540 -35 c12 -24 13 -71 1 -71 -5
0 -14 12 -19 28 -5 15 -13 35 -17 45 -10 24 21 23 35 -2z m-2548 -43 c-12 -12
-35 -1 -27 12 3 5 13 6 21 3 10 -4 12 -9 6 -15z"/>
<path d="M13514 1399 c1 -110 4 -130 20 -148 47 -52 65 5 19 60 -25 29 -29 44
-34 123 -6 85 -6 82 -5 -35z"/>
<path d="M13545 1435 c3 -113 34 -170 63 -112 21 43 24 67 9 67 -20 0 -27 21
-29 83 l-1 52 -4 -45 c-8 -107 -30 -124 -36 -27 -3 40 -3 34 -2 -18z"/>
<path d="M13652 1490 c0 -14 2 -19 5 -12 2 6 2 18 0 25 -3 6 -5 1 -5 -13z"/>
<path d="M3290 1470 c0 -11 10 -30 23 -42 l22 -23 3 23 c3 23 -22 62 -40 62
-4 0 -8 -9 -8 -20z"/>
<path d="M3373 1473 c-22 -22 -32 -63 -15 -63 18 0 43 39 40 62 l-3 23 -22
-22z"/>
<path d="M1370 1456 c0 -9 -4 -14 -10 -11 -13 8 -13 -21 0 -46 14 -26 28 -24
41 5 10 20 8 28 -10 47 -18 20 -21 20 -21 5z"/>
<path d="M18260 1459 c0 -7 -7 -17 -16 -24 -15 -11 -15 -14 1 -48 9 -20 21
-37 25 -37 9 0 40 62 40 80 0 6 -5 8 -11 5 -6 -4 -13 2 -16 14 -6 22 -23 29
-23 10z"/>
<path d="M722 1431 c-1 -8 -13 -27 -27 -41 -13 -14 -28 -41 -31 -59 -6 -28 -4
-33 11 -30 33 7 57 51 52 100 -2 24 -4 37 -5 30z"/>
<path d="M3930 1421 c0 -32 35 -65 70 -67 26 -1 35 4 51 30 37 61 9 80 -35 24
-17 -22 -26 -27 -26 -17 0 18 -31 49 -48 49 -7 0 -12 -9 -12 -19z"/>
<path d="M3290 1407 c0 -17 29 -57 41 -57 15 0 10 37 -7 54 -19 19 -34 21 -34
3z"/>
<path d="M18315 1388 c-11 -18 -24 -40 -30 -50 -11 -21 -25 -24 -25 -5 -1 6
-15 28 -32 47 l-30 35 5 -43 c7 -54 29 -80 66 -78 38 2 59 21 67 61 10 56 2
69 -21 33z"/>
<path d="M1330 1384 c0 -37 16 -54 50 -54 34 0 50 17 50 54 0 28 0 29 -20 11
-11 -10 -20 -24 -20 -32 0 -7 -4 -13 -10 -13 -5 0 -10 6 -10 13 0 8 -9 22 -20
32 -20 18 -20 17 -20 -11z"/>
<path d="M13652 1381 c-1 -21 -13 -46 -32 -68 -33 -37 -41 -87 -14 -81 37 7
55 50 51 119 -2 35 -4 49 -5 30z"/>
<path d="M17877 1374 c-4 -4 -7 -19 -7 -33 0 -19 -3 -22 -9 -12 -6 9 -9 -19
-8 -75 2 -83 3 -89 27 -102 23 -13 23 -13 3 -9 -23 5 -31 -7 -13 -18 6 -3 11
-18 11 -33 1 -21 2 -22 6 -7 3 11 12 28 20 37 8 9 12 21 9 27 -4 5 -2 12 2 15
14 9 11 165 -2 160 -7 -3 -12 6 -11 22 0 27 -15 41 -28 28z m23 -68 c0 -3 -4
-8 -10 -11 -5 -3 -10 -1 -10 4 0 6 5 11 10 11 6 0 10 -2 10 -4z m-1 -57 c-9
-17 -13 -19 -20 -8 -14 22 -11 29 11 29 18 0 19 -3 9 -21z m5 -54 c-4 -8 -10
-15 -14 -15 -4 0 -10 7 -14 15 -4 10 1 15 14 15 13 0 18 -5 14 -15z"/>
<path d="M1050 1348 c0 -9 -6 -18 -12 -21 -10 -3 -10 -11 -3 -33 13 -36 36
-37 47 -2 8 22 5 32 -11 50 -17 17 -21 18 -21 6z"/>
<path d="M3410 1319 c-16 -23 -32 -50 -36 -61 -7 -22 6 -41 13 -20 3 7 17 38
33 68 15 30 25 54 24 54 -2 0 -17 -18 -34 -41z"/>
<path d="M3930 1341 c0 -52 80 -89 114 -52 22 25 31 71 14 71 -17 0 -48 -31
-48 -48 0 -21 -15 -13 -32 18 -19 34 -48 40 -48 11z"/>
<path d="M1332 1278 c0 -76 37 -106 82 -69 17 14 23 66 7 57 -5 -4 -4 7 2 24
15 39 0 51 -24 21 l-20 -24 -15 21 c-24 34 -32 26 -32 -30z m68 -27 c0 -10
-19 -36 -22 -31 -2 3 -11 14 -21 26 -17 20 -16 20 13 16 17 -2 30 -7 30 -11z"/>
<path d="M580 1286 c0 -24 44 -86 61 -86 20 0 9 61 -16 85 -31 32 -45 32 -45
1z"/>
<path d="M699 1297 c-30 -23 -54 -98 -31 -97 25 1 62 54 62 89 0 24 -8 26 -31
8z"/>
<path d="M18200 1281 c0 -10 9 -30 20 -44 27 -34 73 -34 100 1 23 28 26 62 7
62 -16 0 -47 -32 -47 -48 0 -7 -4 -12 -10 -12 -5 0 -10 6 -10 13 0 16 -32 47
-48 47 -7 0 -12 -8 -12 -19z"/>
<path d="M16072 1253 c-23 -34 -37 -73 -25 -73 5 0 19 23 30 50 24 57 23 62
-5 23z"/>
<path d="M18571 1237 c-15 -15 -14 -29 3 -52 14 -19 15 -19 26 7 11 22 10 29
-2 42 -11 11 -18 12 -27 3z"/>
<path d="M13510 1216 c0 -28 35 -76 56 -76 23 0 16 49 -11 75 -30 31 -45 32
-45 1z"/>
<path d="M13615 1215 c-27 -26 -34 -75 -11 -75 21 0 56 48 56 76 0 31 -15 30
-45 -1z"/>
<path d="M585 1210 c-11 -17 3 -57 27 -80 29 -27 38 -25 38 8 -1 39 -51 95
-65 72z"/>
<path d="M686 1190 c-26 -31 -36 -80 -16 -80 17 0 49 38 56 65 11 43 -10 50
-40 15z"/>
<path d="M18200 1205 c0 -17 21 -64 29 -66 44 -11 73 -5 91 18 20 25 27 63 12
63 -16 0 -52 -32 -52 -46 0 -8 -4 -14 -10 -14 -5 0 -10 5 -10 10 0 13 -37 50
-50 50 -5 0 -10 -7 -10 -15z"/>
<path d="M18606 1181 l-19 -28 -23 26 -22 25 0 -51 c0 -39 5 -56 20 -70 24
-22 21 -22 47 1 22 20 30 63 10 50 -8 -4 -7 0 1 15 6 12 10 31 8 42 -3 17 -5
16 -22 -10z m-10 -53 c3 -4 2 -13 -3 -21 -7 -13 -11 -11 -25 7 -15 21 -15 22
3 21 10 -1 21 -4 25 -7z"/>
<path d="M1437 1161 c-26 -39 -45 -91 -33 -91 7 0 67 123 62 127 -2 2 -15 -14
-29 -36z"/>
<path d="M13191 1149 c-11 -25 -11 -36 -1 -57 l12 -27 19 24 c17 21 28 74 12
57 -4 -3 -12 2 -18 13 -10 19 -11 19 -24 -10z"/>
<path d="M13510 1126 c0 -28 35 -76 56 -76 23 0 16 49 -11 75 -30 31 -45 32
-45 1z"/>
<path d="M13632 1143 c-15 -6 -42 -56 -42 -78 0 -8 6 -15 14 -15 21 0 56 48
56 76 0 24 -4 27 -28 17z"/>
<path d="M17931 1110 c-12 -22 -21 -46 -18 -53 2 -6 14 10 25 37 27 61 23 69
-7 16z"/>
<path d="M18357 1108 c-13 -18 -32 -47 -41 -65 -18 -35 -22 -73 -7 -57 13 13
81 148 76 152 -1 2 -14 -12 -28 -30z"/>
<path d="M753 1093 c-50 -63 -86 -149 -60 -140 12 3 99 169 93 175 -2 2 -17
-14 -33 -35z"/>
<path d="M13150 1093 c0 -30 24 -73 41 -73 18 0 9 42 -16 72 l-25 30 0 -29z"/>
<path d="M13237 1091 c-30 -36 -37 -77 -12 -67 14 5 14 4 0 -16 -18 -27 -20
-55 -2 -61 10 -4 10 -7 0 -18 -16 -17 -17 -49 -1 -49 9 0 9 -3 1 -11 -8 -8
-17 -8 -32 0 -24 13 -28 0 -6 -19 9 -8 15 -30 15 -59 l0 -46 -34 70 c-19 39
-47 81 -61 95 -24 22 -23 17 14 -50 22 -41 41 -82 41 -91 0 -9 9 -27 19 -40
10 -14 21 -36 24 -49 2 -14 5 14 6 61 1 72 4 89 21 104 11 10 19 23 17 29 -2
6 2 25 9 42 9 20 10 34 3 41 -6 6 -6 19 0 35 6 16 6 29 0 35 -6 6 -5 21 2 41
17 48 6 58 -24 23z"/>
<path d="M7531 1040 c-3 -63 -3 -64 -16 -35 -12 27 -14 28 -21 10 -4 -11 -13
-23 -19 -27 -17 -10 -7 -53 16 -74 18 -16 19 -15 34 20 11 25 15 59 12 104
l-3 67 -3 -65z"/>
<path d="M7562 1024 c-2 -72 -5 -83 -27 -104 -16 -15 -25 -34 -25 -53 0 -34
15 -32 42 4 16 21 18 40 15 129 -3 98 -3 99 -5 24z"/>
<path d="M13684 1028 c-31 -37 -79 -136 -70 -145 7 -8 36 16 36 31 0 6 15 41
34 79 19 37 33 67 31 67 -2 0 -16 -15 -31 -32z"/>
<path d="M13150 1012 c0 -21 27 -62 41 -62 16 0 10 46 -9 63 -24 22 -32 21
-32 -1z"/>
<path d="M18630 983 c-30 -48 -36 -63 -22 -63 4 0 19 25 33 55 14 30 24 55 22
55 -2 0 -17 -21 -33 -47z"/>
<path d="M22262 909 c-2 -114 0 -129 19 -153 11 -14 27 -26 35 -26 24 0 16 46
-13 81 -25 29 -29 43 -34 128 l-5 96 -2 -126z"/>
<path d="M22292 955 c-2 -79 18 -147 43 -149 24 -2 45 69 43 149 l-2 80 -5
-75 c-5 -66 -7 -72 -18 -53 -7 12 -14 46 -15 75 l-1 53 -6 -60 c-10 -96 -25
-103 -32 -15 l-5 75 -2 -80z"/>
<path d="M7433 922 c5 -45 30 -82 54 -82 23 0 14 35 -18 76 -43 54 -42 54 -36
6z"/>
<path d="M12841 936 c-10 -19 -11 -28 -1 -47 12 -22 13 -22 26 -4 17 23 17 35
0 57 -12 16 -14 16 -25 -6z"/>
<path d="M13150 942 c0 -21 27 -62 41 -62 16 0 10 46 -9 63 -24 22 -32 21 -32
-1z"/>
<path d="M7204 880 c-5 -21 -9 -27 -15 -19 -14 23 -8 -135 7 -165 8 -16 14
-41 14 -54 0 -21 -5 -16 -25 25 -15 28 -33 57 -41 64 -8 6 -1 -14 16 -46 16
-31 30 -63 30 -71 0 -8 4 -14 9 -14 5 0 12 -10 14 -22 2 -13 5 2 6 33 0 33 9
73 22 99 14 29 18 45 10 48 -8 3 -8 9 0 24 15 29 0 37 -21 11 -15 -19 -19 -20
-24 -8 -4 10 3 19 18 25 22 8 36 28 36 52 0 6 -7 5 -16 -3 -15 -12 -16 -11
-10 7 4 14 1 26 -9 34 -13 11 -16 8 -21 -20z m26 -127 c0 -10 -20 -40 -20 -31
0 3 -3 13 -6 22 -4 11 -1 16 10 16 9 0 16 -3 16 -7z m0 -47 c0 -3 -4 -8 -10
-11 -5 -3 -10 -1 -10 4 0 6 5 11 10 11 6 0 10 -2 10 -4z"/>
<path d="M12810 880 c0 -31 17 -50 45 -50 28 0 45 19 45 50 l-1 25 -22 -25
-22 -26 -22 26 -22 25 -1 -25z"/>
<path d="M7790 876 c0 -9 -4 -14 -10 -11 -13 8 -13 -21 0 -46 15 -26 29 -24
40 6 8 21 6 30 -10 47 -18 19 -20 20 -20 4z"/>
<path d="M13282 863 c-26 -38 -52 -89 -52 -105 0 -20 17 2 49 67 33 65 34 82
3 38z"/>
<path d="M22402 866 c-1 -10 -15 -34 -32 -53 -33 -37 -41 -87 -14 -81 34 6 56
51 51 104 -2 27 -4 41 -5 30z"/>
<path d="M7435 823 c8 -34 33 -63 53 -63 18 0 8 46 -15 73 -26 28 -46 22 -38
-10z"/>
<path d="M7527 832 c-18 -20 -23 -72 -8 -72 15 0 51 51 51 71 0 24 -22 24 -43
1z"/>
<path d="M21622 815 c-3 -57 -13 -87 -27 -81 -14 5 -7 -37 12 -69 11 -19 13
-19 30 -2 14 14 18 35 19 105 2 84 1 85 -5 22 -7 -69 -17 -59 -24 25 l-4 40
-1 -40z"/>
<path d="M21680 774 c0 -67 -3 -80 -25 -106 -25 -29 -34 -78 -15 -78 6 0 19 9
30 20 18 18 20 33 20 130 0 61 -2 110 -5 110 -3 0 -5 -34 -5 -76z"/>
<path d="M12874 818 c-19 -25 -21 -25 -32 -7 -15 24 -32 25 -32 1 0 -24 19
-42 46 -42 28 0 46 23 42 52 l-3 23 -21 -27z"/>
<path d="M7750 804 c0 -37 16 -54 52 -54 30 0 48 24 48 62 -1 22 -3 21 -30
-12 -19 -21 -30 -28 -30 -19 0 9 -9 24 -20 34 -20 18 -20 17 -20 -11z"/>
<path d="M24620 795 c-36 -19 -71 -39 -77 -45 -7 -6 -16 -11 -20 -11 -23 0
-54 -13 -64 -25 -6 -8 -18 -14 -25 -14 -14 0 -31 -7 -168 -69 -37 -17 -77 -31
-87 -31 -11 0 -19 -4 -19 -9 0 -5 -12 -11 -27 -14 -26 -4 -61 -16 -123 -39
-14 -6 -26 -9 -28 -9 -1 1 -15 -5 -31 -13 -16 -9 -31 -13 -34 -10 -3 3 -13 1
-24 -5 -19 -10 -146 -53 -173 -57 -8 -2 -33 -7 -55 -13 -22 -5 -50 -12 -63
-15 -12 -2 -25 -7 -30 -9 -4 -3 -25 -8 -47 -11 -22 -4 -55 -11 -73 -17 -18 -6
-43 -12 -55 -14 -12 -2 -31 -5 -42 -8 -23 -5 -103 -19 -125 -22 -8 -1 -28 -5
-45 -8 -50 -11 -98 -19 -139 -22 -43 -4 -114 -13 -161 -21 -17 -3 -41 -5 -55
-6 -14 0 -29 -3 -35 -6 -5 -4 -32 -7 -60 -7 -27 0 -53 -4 -57 -10 -4 -5 -8 33
-8 86 0 83 3 98 20 114 29 26 25 39 -6 19 -19 -13 -28 -14 -37 -5 -23 23 -27
10 -6 -27 17 -28 20 -45 15 -68 -8 -29 -8 -29 -28 23 -11 29 -39 73 -64 100
-36 38 -40 40 -20 12 28 -38 76 -142 76 -163 0 -7 9 -21 20 -31 22 -20 26 -40
10 -50 -6 -4 -43 -9 -83 -11 -40 -2 -100 -6 -134 -9 -95 -7 -93 -9 -93 115 0
106 0 107 31 139 36 38 32 50 -9 26 -27 -17 -30 -17 -55 0 -34 22 -35 4 -2
-31 20 -22 25 -37 25 -80 0 -30 -4 -54 -10 -54 -5 0 -10 6 -10 13 0 7 -15 45
-34 84 -35 72 -92 145 -130 165 -14 8 -9 -2 14 -28 50 -56 74 -98 106 -187 15
-44 36 -84 46 -90 20 -13 25 -62 6 -73 -9 -6 -189 -9 -290 -5 -13 1 -11 12 17
66 18 36 30 65 27 65 -9 0 -33 -35 -57 -85 l-24 -50 0 46 c-1 30 4 51 14 59
22 18 18 32 -5 20 -14 -8 -26 -8 -40 0 -23 12 -27 -2 -5 -20 9 -7 15 -29 15
-54 l-1 -41 -29 60 c-16 33 -43 74 -61 90 l-32 30 20 -30 c24 -36 58 -101 67
-131 6 -18 2 -22 -24 -26 -16 -3 -32 -2 -35 1 -3 2 -49 6 -103 7 -53 2 -107 3
-119 3 -21 1 -23 6 -23 57 0 46 5 62 25 86 31 36 27 46 -8 23 -24 -15 -27 -15
-53 1 -27 18 -27 18 -15 -3 6 -12 16 -25 21 -28 6 -3 10 -32 10 -63 l0 -57
-23 55 c-28 67 -81 146 -108 160 -14 8 -10 -2 15 -34 31 -41 69 -124 78 -170
2 -16 -3 -19 -34 -18 -21 0 -39 1 -40 2 -2 0 -25 3 -53 5 -27 3 -75 7 -105 11
-30 3 -68 7 -85 9 -68 7 -152 17 -180 22 -33 5 -79 11 -165 19 -30 2 -62 7
-70 11 -8 3 -26 7 -40 8 -14 1 -61 9 -105 18 -44 8 -118 21 -165 28 -47 6 -91
16 -97 22 -7 5 -24 7 -38 5 -14 -3 -25 -2 -25 2 0 8 -36 16 -103 25 -17 3 -46
9 -64 14 -17 5 -34 7 -36 4 -3 -2 -14 0 -24 5 -10 6 -31 12 -48 15 -45 8 -121
27 -177 43 -11 3 -18 0 -18 -9 0 -9 37 -22 118 -42 173 -41 233 -54 272 -60
19 -2 49 -9 67 -14 17 -5 34 -7 37 -4 3 3 11 2 18 -4 7 -5 25 -9 41 -8 15 0
27 -2 27 -5 0 -4 6 -7 13 -8 6 0 53 -7 102 -16 153 -26 169 -28 198 -29 15 0
27 -3 27 -8 0 -4 8 -8 18 -7 9 0 35 -3 57 -6 128 -19 151 -21 320 -40 66 -7
137 -13 158 -12 20 1 37 -3 37 -8 0 -4 16 -6 35 -4 19 2 35 1 35 -2 0 -4 15
-7 33 -7 98 -2 97 -2 97 -27 0 -14 5 -28 10 -31 6 -4 10 6 10 23 l0 30 93 -5
c50 -2 119 -6 152 -8 33 -2 68 -4 78 -4 11 -1 17 -9 17 -26 0 -14 5 -25 10
-25 6 0 10 12 10 28 l0 27 167 0 c164 1 402 11 473 21 19 2 71 6 115 9 44 2
98 6 120 10 61 8 107 15 140 21 38 7 68 12 125 18 25 3 90 14 145 26 110 23
139 28 172 34 39 6 248 61 253 66 3 3 14 6 25 7 27 2 210 56 275 81 8 3 17 6
20 7 20 4 129 47 143 56 11 6 21 8 24 5 3 -3 15 0 27 6 11 7 23 12 26 13 32 2
470 212 470 225 0 16 -22 10 -90 -25z"/>
<path d="M22646 768 c-18 -20 -16 -48 4 -78 9 -13 12 -12 25 4 18 24 19 37 2
69 l-14 26 -17 -21z"/>
<path d="M12874 758 c-19 -25 -21 -25 -32 -7 -15 24 -32 25 -32 1 0 -24 19
-42 46 -42 28 0 46 23 42 52 l-3 23 -21 -27z"/>
<path d="M7435 743 c8 -34 33 -63 53 -63 20 0 7 50 -20 73 -30 25 -41 21 -33
-10z"/>
<path d="M7530 750 c-19 -19 -28 -70 -12 -70 21 1 52 44 52 74 0 22 -16 20
-40 -4z"/>
<path d="M7750 727 c0 -29 18 -47 46 -47 17 0 21 -4 17 -20 -7 -26 -9 -25 -38
8 l-24 27 -1 -26 c0 -46 47 -69 83 -40 17 14 25 67 8 57 -5 -4 -4 7 2 24 15
39 0 51 -24 21 l-20 -24 -15 21 c-20 28 -34 28 -34 -1z"/>
<path d="M22260 710 c0 -30 37 -80 60 -80 20 0 10 61 -15 85 -32 33 -45 31
-45 -5z"/>
<path d="M22382 733 c-29 -11 -57 -103 -32 -103 23 0 60 50 60 80 0 30 -4 33
-28 23z"/>
<path d="M22600 715 c0 -49 21 -80 55 -81 41 -2 65 22 65 63 l0 35 -24 -29
c-12 -15 -25 -35 -28 -43 -3 -11 -8 -9 -18 10 -7 14 -16 27 -20 30 -4 3 -12
14 -18 25 -10 18 -11 17 -12 -10z"/>
<path d="M21555 675 c7 -51 27 -85 52 -85 21 0 15 36 -10 67 -13 15 -29 37
-36 48 -10 17 -11 12 -6 -30z"/>
<path d="M21922 645 c-2 -97 11 -129 54 -133 37 -4 53 13 61 65 l6 38 -26 -31
c-15 -18 -27 -37 -27 -43 0 -6 -4 -11 -10 -11 -5 0 -10 6 -10 13 0 8 -9 22
-20 32 -14 13 -20 34 -23 84 l-3 66 -2 -80z"/>
<path d="M12917 692 c-20 -22 -52 -96 -38 -87 9 5 62 105 56 105 -1 0 -9 -8
-18 -18z"/>
<path d="M7256 682 c-15 -24 -25 -63 -15 -57 12 8 32 56 25 62 -2 2 -7 0 -10
-5z"/>
<path d="M7587 658 c-32 -43 -57 -93 -57 -115 0 -12 3 -14 11 -6 14 14 79 146
74 151 -2 2 -14 -12 -28 -30z"/>
<path d="M21966 639 c-14 -17 -17 -28 -10 -48 5 -14 16 -26 24 -26 19 0 39 53
24 63 -6 4 -13 13 -15 20 -3 8 -10 6 -23 -9z"/>
<path d="M10401 633 c-16 -17 -5 -63 16 -70 20 -7 35 44 20 67 -14 24 -18 24
-36 3z"/>
<path d="M22260 622 c0 -33 34 -82 56 -82 34 0 6 78 -37 100 -17 9 -19 7 -19
-18z"/>
<path d="M22373 623 c-36 -35 -47 -87 -17 -81 27 5 56 52 52 84 l-3 29 -32
-32z"/>
<path d="M22974 636 c-3 -8 -3 -20 1 -26 3 -5 1 -10 -5 -10 -7 0 -10 -25 -8
-72 3 -67 5 -73 26 -76 12 -2 20 -7 17 -12 -3 -5 -13 -6 -23 -3 -15 6 -15 5
-3 -11 12 -15 16 -15 29 -3 16 17 28 192 12 182 -5 -3 -10 5 -12 17 -4 26 -26
36 -34 14z m30 -101 c-4 -8 -10 -12 -15 -9 -14 8 -10 24 6 24 9 0 12 -6 9 -15z
m0 -50 c-4 -8 -10 -12 -15 -9 -14 8 -10 24 6 24 9 0 12 -6 9 -15z"/>
<path d="M22604 627 c-7 -19 24 -72 42 -72 19 0 14 34 -10 61 -22 26 -25 27
-32 11z"/>
<path d="M22692 625 c-14 -11 -22 -26 -22 -46 0 -27 2 -29 20 -19 19 10 35 49
28 70 -2 6 -12 4 -26 -5z"/>
<path d="M7857 583 c-28 -43 -43 -83 -30 -83 9 0 64 112 58 118 -2 2 -15 -13
-28 -35z"/>
<path d="M21560 572 c0 -29 26 -62 48 -62 28 0 5 62 -28 80 -18 10 -20 7 -20
-18z"/>
<path d="M21650 578 c-11 -12 -20 -35 -20 -50 0 -25 2 -28 20 -18 23 13 40 41
40 69 0 27 -14 27 -40 -1z"/>
<path d="M22600 546 c0 -16 38 -66 51 -66 14 0 11 33 -7 58 -17 24 -44 30 -44
8z"/>
<path d="M22686 544 c-17 -17 -22 -64 -7 -64 14 0 41 41 41 62 0 22 -14 23
-34 2z"/>
<path d="M22432 513 c-23 -33 -57 -99 -67 -131 -6 -21 -5 -23 13 -13 11 6 26
28 32 48 7 21 22 55 33 75 25 45 17 60 -11 21z"/>
<path d="M21560 491 c0 -28 32 -71 52 -71 23 0 -3 74 -32 90 -18 10 -20 8 -20
-19z"/>
<path d="M21651 496 c-15 -16 -21 -33 -19 -52 l3 -29 28 27 c15 16 27 38 27
53 0 31 -10 32 -39 1z"/>
<path d="M21925 488 c11 -36 25 -48 56 -48 28 0 59 30 59 58 0 21 -34 9 -45
-16 -5 -12 -12 -22 -15 -22 -3 0 -10 10 -15 22 -6 13 -18 24 -28 26 -16 3 -18
0 -12 -20z"/>
<path d="M22748 473 c-39 -42 -77 -123 -57 -123 5 0 19 21 29 46 11 26 30 59
41 75 26 37 20 37 -13 2z"/>
<path d="M10241 471 c-8 -5 -11 -16 -7 -26 4 -12 2 -16 -8 -12 -10 4 -13 -8
-12 -56 1 -70 8 -87 37 -87 12 0 17 -4 14 -11 -4 -6 -13 -8 -21 -5 -16 6 -19
-10 -4 -19 14 -9 42 15 36 31 -2 6 -2 15 2 19 4 4 8 36 8 71 1 36 -1 62 -4 59
-3 -3 -11 6 -16 20 -8 18 -15 22 -25 16z m19 -61 c0 -5 -2 -10 -4 -10 -3 0 -8
5 -11 10 -3 6 -1 10 4 10 6 0 11 -4 11 -10z m0 -40 c0 -5 -4 -10 -10 -10 -5 0
-10 5 -10 10 0 6 5 10 10 10 6 0 10 -4 10 -10z m0 -47 c0 -7 -4 -13 -9 -13 -5
0 -11 6 -14 13 -3 8 1 14 9 14 8 0 14 -6 14 -14z"/>
<path d="M22932 435 c14 -28 28 -62 31 -76 4 -15 14 -29 22 -33 18 -7 20 17 2
36 -7 7 -21 32 -31 56 -11 23 -26 48 -34 54 -9 8 -5 -7 10 -37z"/>
<path d="M21718 413 c-30 -33 -68 -105 -68 -130 0 -28 18 -3 59 81 20 42 36
76 36 76 -1 0 -13 -12 -27 -27z"/>
<path d="M21926 418 c11 -36 23 -47 55 -46 32 1 43 11 54 46 6 20 4 23 -11 20
-10 -2 -24 -13 -30 -26 l-11 -23 -17 26 c-21 32 -50 34 -40 3z"/>
<path d="M23025 400 c-17 -33 -19 -44 -6 -36 10 6 33 66 26 66 -3 0 -11 -13
-20 -30z"/>
<path d="M10471 318 c-30 -52 -40 -85 -22 -73 12 7 63 117 57 122 -3 3 -18
-19 -35 -49z"/>
</g>
</svg>
