<?xml version="1.0" standalone="no"?>
<!DOCTYPE svg PUBLIC "-//W3C//DTD SVG 20010904//EN"
 "http://www.w3.org/TR/2001/REC-SVG-20010904/DTD/svg10.dtd">
<svg version="1.0" xmlns="http://www.w3.org/2000/svg"
 width="1068.000000pt" height="946.000000pt" viewBox="0 0 1068.000000 946.000000"
 preserveAspectRatio="xMidYMid meet">

<g transform="translate(0.000000,946.000000) scale(0.100000,-0.100000)"
fill="#000000" stroke="none">
<path d="M5500 9321 c0 -6 19 -11 43 -13 l42 -3 -4 -122 c-3 -108 -1 -123 13
-123 13 0 16 13 16 83 0 45 3 99 6 120 6 35 8 37 45 37 28 0 39 4 39 15 0 12
-18 15 -100 15 -56 0 -100 -4 -100 -9z"/>
<path d="M5126 9265 c-22 -30 -48 -63 -58 -72 -17 -15 -18 -14 -18 35 0 28 -3
57 -6 66 -9 22 -37 21 -30 -1 2 -10 8 -63 11 -118 8 -115 12 -138 28 -132 7 2
10 22 9 48 -1 27 4 52 13 63 14 19 17 18 66 -37 32 -36 59 -57 72 -57 18 0 15
6 -24 48 -90 95 -87 85 -42 139 54 65 58 73 36 73 -10 0 -35 -24 -57 -55z"/>
<path d="M6048 9274 c-76 -41 -84 -192 -13 -238 36 -24 106 -21 134 5 30 28
51 79 51 124 0 96 -91 153 -172 109z m117 -39 c50 -49 25 -160 -42 -186 -41
-15 -90 12 -104 59 -32 107 75 199 146 127z"/>
<path d="M4665 9238 c3 -13 14 -72 25 -132 11 -60 21 -110 23 -112 1 -2 8 0
15 5 9 5 7 31 -8 112 -27 145 -29 149 -45 149 -11 0 -14 -7 -10 -22z"/>
<path d="M6546 9188 c-8 -23 -66 -237 -66 -243 0 -3 7 -5 15 -5 9 0 19 17 26
45 9 37 15 45 34 45 33 0 52 -23 60 -70 6 -37 31 -77 42 -66 2 2 0 21 -6 43
-15 53 -14 83 4 83 21 0 48 46 47 82 -1 40 -23 62 -75 77 -23 7 -50 15 -60 17
-9 3 -19 -1 -21 -8z m115 -58 c20 -23 14 -67 -12 -81 -23 -12 -109 8 -104 25
2 6 9 30 15 53 l10 41 38 -10 c20 -5 44 -18 53 -28z"/>
<path d="M4340 9171 c-5 -11 -10 -50 -10 -88 0 -37 -3 -85 -6 -106 l-7 -37
-27 37 c-15 21 -47 66 -72 100 -29 40 -48 59 -56 54 -18 -11 145 -233 167
-229 16 3 18 14 34 236 4 54 -5 66 -23 33z"/>
<path d="M7002 8998 c-11 -29 -32 -84 -46 -122 -18 -47 -23 -73 -16 -80 13
-13 12 -16 58 105 47 123 51 140 35 146 -6 2 -20 -19 -31 -49z"/>
<path d="M2855 9028 c-24 -10 -129 -164 -174 -255 -69 -137 -102 -269 -105
-420 l-1 -112 -95 -79 c-53 -43 -125 -106 -162 -140 -36 -34 -68 -62 -71 -62
-3 0 6 34 19 76 14 43 26 111 29 156 3 67 8 83 25 95 32 23 50 68 50 127 0 47
-4 58 -30 84 -35 35 -76 43 -127 26 -78 -27 -100 -103 -61 -207 11 -28 53 -57
83 -57 11 0 15 -11 15 -49 0 -132 -77 -321 -173 -424 -31 -34 -103 -117 -159
-184 -56 -67 -104 -121 -105 -119 -2 2 12 36 31 77 69 150 81 207 81 379 -1
143 -3 161 -28 234 -41 117 -98 186 -141 170 -45 -17 -135 -260 -157 -420 -22
-165 41 -448 118 -536 14 -16 8 -28 -64 -135 -96 -143 -161 -250 -243 -403
-52 -97 -61 -109 -56 -75 4 22 11 74 17 115 30 202 -36 416 -166 546 -92 92
-195 123 -231 69 -14 -21 -14 -37 -5 -128 7 -58 20 -136 31 -175 44 -159 145
-379 245 -533 l44 -67 -48 -114 c-26 -62 -67 -169 -91 -238 -24 -69 -45 -127
-46 -129 -2 -2 -17 8 -34 23 -51 43 -100 46 -156 9 -38 -25 -102 -129 -110
-178 -7 -48 -14 -54 -35 -29 -19 23 -64 44 -94 44 -16 0 -39 -12 -57 -30 -30
-30 -30 -33 -26 -109 l5 -78 -54 43 c-87 71 -133 57 -133 -38 0 -54 29 -105
151 -269 82 -110 316 -361 345 -370 8 -3 10 -51 6 -169 l-5 -165 -71 71 c-79
79 -138 114 -239 139 -58 14 -76 15 -113 5 -116 -33 -234 -176 -234 -285 0
-46 22 -57 93 -45 100 16 138 33 194 83 64 59 83 92 83 147 0 48 8 50 75 11
52 -30 112 -85 178 -161 34 -40 37 -49 37 -104 0 -111 35 -434 62 -578 8 -45
15 -58 28 -58 24 0 29 17 19 60 -5 19 -9 56 -9 81 0 129 109 318 209 364 l41
18 68 -65 c71 -69 125 -102 185 -113 79 -15 186 40 172 88 -12 39 -79 109
-135 141 -51 29 -62 31 -150 30 -91 0 -98 -2 -176 -42 -97 -49 -146 -100 -197
-204 -41 -85 -41 -84 -56 77 l-9 100 35 73 c40 85 124 175 193 209 25 12 71
29 104 37 54 14 60 14 95 -3 132 -68 306 -80 407 -28 62 31 114 74 114 92 0
39 -133 117 -232 136 -46 9 -70 8 -131 -5 -85 -19 -131 -46 -165 -96 -20 -30
-33 -37 -92 -51 -125 -29 -222 -92 -287 -187 l-38 -54 -3 188 c-1 104 0 199 3
211 3 13 21 30 43 41 60 29 152 100 227 176 123 125 285 364 285 421 0 47 -53
70 -103 44 -12 -6 -51 -39 -86 -73 -35 -33 -61 -53 -57 -43 21 61 46 182 46
224 0 84 -67 122 -130 73 -34 -26 -40 -25 -40 8 0 15 -4 41 -9 58 -7 24 1 58
40 175 26 80 70 197 96 260 l48 114 115 6 c169 9 347 56 485 128 125 65 232
186 250 283 6 30 3 40 -15 58 -21 21 -29 22 -114 17 -197 -12 -420 -116 -582
-271 -26 -25 -49 -46 -51 -46 -2 0 15 37 38 83 97 192 321 537 349 537 8 0 58
-9 110 -20 199 -41 405 -37 560 12 134 42 375 185 394 233 3 9 2 25 -4 35 -11
21 -131 73 -222 96 -77 20 -223 22 -298 5 -107 -25 -282 -113 -393 -199 -32
-24 -60 -42 -62 -40 -7 7 186 229 306 352 109 112 114 116 198 146 118 43 235
70 304 70 l58 0 -6 -47 c-15 -113 70 -191 174 -163 54 14 81 51 81 109 0 81
-37 111 -157 130 -109 17 -227 13 -321 -9 -46 -11 -85 -20 -88 -20 -13 0 16
27 128 116 119 96 121 97 152 85 257 -103 397 -121 562 -70 101 31 138 74 97
111 -53 47 -200 98 -281 98 -55 0 -174 -25 -263 -55 -38 -12 -69 -21 -69 -19
0 2 51 36 113 77 319 209 667 379 1012 492 71 24 131 47 132 52 1 4 -2 15 -7
23 -8 12 -24 10 -112 -19 -355 -115 -727 -295 -1052 -508 -103 -68 -126 -79
-111 -56 79 117 173 315 199 418 9 32 16 81 16 108 0 86 -46 147 -95 125z m46
-86 c16 -56 -15 -171 -90 -328 -56 -116 -159 -286 -184 -301 -7 -4 -8 24 -4
83 6 94 39 223 81 318 33 74 158 266 173 266 7 0 17 -17 24 -38z m-594 -473
c8 -7 13 -32 13 -61 0 -41 -5 -54 -29 -79 -36 -36 -63 -37 -90 -3 -51 65 -9
174 61 160 17 -3 37 -11 45 -17z m894 -145 c58 -17 129 -53 129 -65 0 -4 -26
-18 -57 -30 -76 -29 -246 -33 -340 -7 -92 26 -138 47 -127 58 5 5 52 21 104
34 112 29 214 33 291 10z m-1387 -76 c68 -118 90 -347 48 -500 -12 -42 -45
-130 -74 -194 l-53 -117 -22 49 c-58 129 -84 315 -64 453 19 127 102 351 131
351 5 0 20 -19 34 -42z m1084 -224 c55 -11 82 -83 43 -118 -10 -9 -35 -19 -54
-23 -31 -5 -40 -1 -67 25 -34 34 -41 84 -15 112 15 16 30 17 93 4z m-233 -365
c39 -12 88 -30 110 -41 l39 -20 -38 -32 c-68 -55 -213 -132 -313 -167 -96 -33
-101 -33 -268 -34 -166 0 -325 18 -325 37 0 4 39 37 88 73 106 79 304 180 392
200 86 19 223 13 315 -16z m-1550 -209 c85 -52 181 -211 206 -338 14 -77 8
-216 -16 -336 -17 -81 -20 -87 -33 -70 -30 41 -173 344 -201 429 -44 131 -75
328 -55 347 8 9 60 -8 99 -32z m1015 -456 c0 -33 -46 -108 -97 -159 -116 -115
-418 -224 -597 -213 l-59 3 69 74 c119 129 261 220 424 274 101 34 105 35 188
36 61 1 72 -2 72 -15z m-1088 -891 c36 -39 56 -91 64 -172 6 -64 4 -74 -19
-113 -45 -78 -126 -295 -143 -385 -8 -42 -24 -26 -24 24 0 51 -49 289 -71 348
-17 46 -18 62 -10 115 13 79 43 141 87 180 44 38 82 39 116 3z m-298 -205 c46
-53 70 -119 100 -271 24 -120 50 -316 43 -324 -4 -3 -151 253 -188 329 -24 47
-69 203 -69 237 0 15 7 37 16 49 24 34 57 28 98 -20z m526 -26 c0 -132 -81
-325 -274 -649 -49 -83 -55 -43 -20 141 47 247 197 556 269 556 23 0 25 -4 25
-48z m-746 -103 c25 -22 75 -84 110 -137 74 -114 220 -371 213 -378 -17 -17
-331 379 -374 472 -21 47 -23 84 -3 84 4 0 28 -18 54 -41z m946 -49 c0 -33
-108 -197 -212 -322 -52 -61 -187 -183 -195 -174 -3 3 4 17 14 33 11 15 46 75
77 133 78 143 253 340 303 340 7 0 13 -5 13 -10z m310 -726 c38 -20 70 -40 70
-45 0 -11 -49 -44 -94 -63 -61 -25 -190 -22 -272 8 -85 31 -89 36 -63 69 41
53 119 78 221 72 54 -3 82 -11 138 -41z m-1206 -30 c14 -36 5 -74 -27 -116
-53 -69 -105 -97 -211 -115 l-39 -6 6 38 c10 62 56 124 125 172 69 47 134 59
146 27z m902 -379 c52 -15 110 -58 144 -105 l21 -29 -30 -16 c-38 -19 -89 -19
-137 1 -35 15 -164 128 -164 145 0 20 103 23 166 4z"/>
<path d="M7312 8781 c-82 -79 -100 -100 -86 -105 11 -4 27 3 46 20 l28 28 49
-24 50 -23 -6 -42 c-4 -32 -2 -43 9 -48 13 -4 18 19 30 136 14 134 12 158 -12
156 -3 0 -51 -44 -108 -98z m97 -7 c-4 -31 -10 -58 -12 -60 -2 -3 -21 3 -41
13 l-36 17 42 43 c23 24 45 43 48 43 4 0 3 -25 -1 -56z"/>
<path d="M8078 8423 c-9 -10 -20 -31 -25 -48 -8 -24 -16 -31 -41 -33 -35 -4
-62 -34 -62 -70 0 -32 52 -82 84 -82 19 0 26 -5 26 -19 0 -10 7 -21 15 -25 11
-4 15 2 15 23 0 20 7 31 25 39 14 6 25 18 25 27 0 17 -16 20 -25 5 -3 -5 -13
-10 -21 -10 -10 0 -14 12 -14 45 0 45 0 45 34 45 40 0 66 22 66 56 0 52 -70
84 -102 47z m70 -40 c3 -17 -4 -26 -24 -33 -37 -14 -52 0 -36 35 15 33 55 31
60 -2z m-93 -118 c0 -44 -2 -50 -20 -47 -27 5 -55 31 -55 53 0 25 29 51 54 47
18 -3 21 -10 21 -53z"/>
<path d="M8627 7803 c-67 -59 -95 -89 -88 -96 7 -7 23 -1 49 20 l39 32 32 -35
c18 -19 44 -37 59 -41 51 -12 112 47 99 98 -6 25 -73 109 -85 109 -4 -1 -51
-40 -105 -87z m139 12 c30 -40 27 -77 -7 -96 -30 -15 -64 -4 -89 31 l-21 29
38 35 c21 20 41 36 45 36 4 0 19 -16 34 -35z"/>
<path d="M8937 7407 c-67 -18 -116 -35 -114 -41 4 -12 31 -13 64 -2 18 6 27
-1 53 -40 l32 -46 -22 -30 c-20 -27 -21 -74 -1 -52 34 37 157 222 153 232 -5
17 -33 14 -165 -21z m123 -3 c0 -9 -63 -94 -70 -94 -8 0 -53 60 -48 65 3 3 98
32 111 34 4 1 7 -2 7 -5z"/>
<path d="M7315 7145 c-327 -62 -725 -299 -1180 -703 -169 -150 -565 -547 -731
-732 -389 -433 -833 -994 -1253 -1583 -74 -103 -135 -186 -136 -185 -1 2 17
82 41 178 88 351 150 739 180 1124 20 272 15 835 -10 1036 -18 142 -57 311
-86 378 -11 24 -20 48 -20 53 0 5 91 9 203 9 l202 0 45 57 c25 31 51 66 59 77
14 19 10 19 -665 13 -504 -5 -755 -3 -974 7 -410 18 -561 5 -705 -64 -127 -61
-175 -148 -175 -316 0 -88 2 -97 38 -166 48 -93 181 -308 190 -308 4 1 18 10
31 21 l24 20 -25 47 c-54 100 -62 240 -20 334 44 101 170 186 342 232 176 47
239 51 788 51 437 0 514 -2 522 -15 30 -48 34 -582 6 -880 -76 -834 -171
-1353 -375 -2055 -27 -93 -60 -196 -72 -227 -29 -76 -22 -103 32 -119 35 -11
49 -10 112 10 110 36 186 77 199 109 69 172 330 560 671 999 436 560 784 960
1182 1358 291 291 643 601 900 791 258 192 485 295 650 294 119 -1 171 -29
211 -115 31 -65 32 -169 3 -300 -11 -52 -17 -100 -14 -105 7 -12 45 -13 61 -2
20 12 124 230 155 325 37 108 40 184 11 248 -24 54 -45 74 -101 94 -65 23
-221 27 -316 10z"/>
<path d="M9210 7004 c-137 -125 -135 -134 26 -99 l109 23 -83 -78 c-114 -108
-109 -116 59 -80 134 28 145 32 135 48 -3 6 -46 0 -108 -14 -56 -14 -106 -23
-110 -22 -5 2 27 35 71 73 76 66 101 105 66 105 -8 0 -56 -9 -107 -20 -50 -12
-94 -19 -99 -18 -4 2 28 34 72 72 70 61 96 96 71 96 -4 0 -50 -39 -102 -86z"/>
<path d="M9455 6472 c-66 -24 -121 -45 -122 -46 -1 -1 10 -34 24 -74 15 -42
31 -72 39 -72 18 0 18 0 -6 60 -25 65 -25 66 8 78 15 5 34 13 42 16 12 5 20
-7 34 -49 11 -32 25 -55 33 -55 15 0 13 16 -13 79 -8 19 -13 35 -12 36 3 3 79
35 83 35 1 0 13 -27 25 -60 21 -57 29 -67 42 -54 6 5 -39 134 -51 145 -3 3
-60 -14 -126 -39z"/>
<path d="M9670 6044 c-35 -8 -59 -9 -64 -3 -14 13 -26 11 -26 -5 0 -8 -14 -18
-32 -21 -72 -16 -77 -21 -68 -57 5 -18 14 -53 20 -77 8 -30 15 -40 22 -33 7 7
7 26 -2 62 -7 29 -9 55 -4 60 5 5 28 12 51 16 35 5 43 3 53 -15 6 -12 15 -19
21 -16 5 4 5 14 -1 26 -12 21 -13 21 58 39 39 10 53 23 35 33 -5 2 -33 -2 -63
-9z"/>
<path d="M9613 5672 c-8 -5 -6 -30 8 -97 26 -125 66 -406 78 -554 10 -122 18
-150 40 -137 29 18 -6 371 -65 662 -13 67 -24 124 -24 128 0 8 -22 7 -37 -2z"/>
<path d="M6350 5159 c-308 -4 -577 -11 -618 -18 -308 -46 -487 -141 -542 -287
-52 -142 3 -343 145 -524 62 -77 97 -91 142 -55 2 1 -17 22 -41 47 -54 56 -71
118 -63 221 8 95 49 177 124 248 138 132 324 193 796 265 137 21 223 27 420
31 148 3 252 2 258 -4 6 -6 -13 -18 -48 -32 -87 -35 -198 -107 -237 -153 -20
-22 -68 -109 -108 -192 -136 -285 -285 -572 -520 -1001 -129 -236 -288 -529
-353 -650 -150 -279 -260 -477 -438 -785 -119 -204 -154 -256 -212 -316 -74
-75 -166 -129 -238 -141 -80 -12 -49 -69 32 -59 57 8 124 39 270 124 64 38
141 79 172 92 51 20 63 22 120 12 35 -5 90 -17 121 -25 32 -8 59 -12 62 -10 2
2 2 31 -1 63 -7 79 24 179 132 420 104 234 216 457 389 775 75 138 224 426
330 640 295 590 534 996 653 1106 59 54 129 85 237 104 246 42 431 2 555 -122
185 -186 199 -538 34 -868 -121 -242 -363 -458 -603 -538 -229 -76 -383 -100
-649 -102 l-224 -2 -46 -34 c-25 -19 -47 -44 -49 -55 -4 -29 31 -34 263 -34
506 0 910 111 1215 336 201 147 382 355 460 527 72 159 100 372 65 492 -34
120 -121 260 -201 329 -89 75 -228 130 -404 160 -115 20 -576 24 -1400 15z"/>
<path d="M9717 4804 c-4 -4 -7 -42 -7 -85 0 -67 -5 -88 -34 -153 -68 -148
-153 -243 -247 -275 l-58 -19 -42 64 c-49 76 -116 138 -166 155 -49 16 -147 7
-173 -16 -27 -25 -25 -51 10 -111 54 -94 138 -145 253 -152 67 -4 90 -1 164
24 105 35 169 88 239 200 26 41 49 72 51 70 2 -2 -1 -59 -7 -127 -14 -149 -32
-191 -130 -290 -79 -79 -152 -117 -256 -132 -61 -9 -79 -9 -97 3 -89 57 -175
99 -226 110 -92 19 -186 10 -256 -25 -81 -41 -84 -61 -15 -126 78 -73 147
-103 248 -108 109 -4 165 12 213 61 34 35 41 38 95 38 124 0 233 49 331 147
l66 65 -8 -58 c-7 -64 -50 -286 -66 -345 -8 -31 -15 -38 -43 -43 -50 -10 -201
-87 -286 -147 -84 -59 -297 -265 -329 -319 -38 -64 -22 -113 38 -113 33 0 100
32 152 74 20 16 40 29 43 29 4 0 -6 -24 -20 -52 -64 -127 -80 -217 -44 -256
24 -26 54 -28 94 -7 15 8 31 15 35 15 3 0 7 -34 8 -76 3 -75 2 -77 -53 -178
-31 -55 -92 -159 -136 -229 -62 -99 -84 -127 -97 -122 -52 21 -193 37 -276 31
-115 -8 -260 -31 -322 -52 -171 -57 -303 -177 -303 -274 0 -49 46 -64 195 -63
96 0 140 6 220 27 119 30 260 98 351 167 37 27 68 49 69 47 11 -12 -248 -321
-390 -466 l-120 -123 -89 36 c-176 71 -383 112 -520 102 -125 -9 -267 -49
-386 -109 -91 -46 -105 -57 -108 -80 -3 -22 5 -33 45 -62 67 -49 176 -101 253
-122 77 -20 245 -23 310 -5 121 33 214 67 305 113 118 59 111 47 -54 -86 -143
-115 -336 -255 -376 -271 -53 -22 -264 -48 -340 -41 -95 8 -118 15 -105 31 6
7 13 35 17 62 6 57 -11 99 -53 132 -32 25 -111 28 -153 6 -47 -24 -65 -100
-36 -155 18 -35 41 -47 155 -86 79 -27 96 -29 238 -29 83 0 152 -1 152 -1 0
-4 -182 -105 -236 -132 -57 -29 -63 -30 -90 -16 -16 9 -36 22 -44 29 -28 25
-203 103 -270 120 -87 22 -258 17 -312 -9 -65 -31 -47 -72 62 -142 115 -75
212 -93 378 -72 62 8 109 11 105 7 -29 -28 -429 -178 -634 -238 -684 -198
-1477 -219 -2181 -57 -61 14 -68 13 -68 -15 0 -14 19 -22 90 -38 288 -66 518
-92 885 -98 246 -4 345 -2 480 12 475 46 878 148 1305 327 91 38 172 72 180
76 8 3 -11 -23 -43 -59 -151 -169 -265 -363 -273 -465 -7 -74 19 -124 63 -124
62 0 276 265 342 423 37 91 71 217 71 269 0 36 2 38 93 89 50 28 134 78 186
111 52 32 96 57 98 54 3 -2 -7 -22 -20 -43 -28 -44 -77 -190 -77 -229 0 -13
-6 -24 -12 -24 -42 -1 -88 -79 -88 -148 0 -62 26 -97 81 -112 33 -9 46 -8 76
7 58 29 78 64 78 138 0 53 -4 68 -23 88 -13 14 -35 28 -48 31 -20 5 -23 11
-18 34 20 90 53 165 115 256 53 80 83 112 136 151 37 28 122 94 187 149 65 54
115 92 110 85 -4 -8 -27 -44 -51 -81 -104 -162 -137 -272 -137 -463 -1 -122 2
-147 22 -196 26 -64 55 -99 82 -99 49 0 202 265 240 415 36 144 22 414 -26
507 l-15 30 98 101 c103 106 249 274 317 364 22 29 41 51 43 49 2 -2 -7 -37
-20 -77 -62 -189 -53 -356 30 -525 38 -78 128 -170 175 -179 82 -15 97 10 105
168 9 183 -40 423 -138 673 l-40 102 64 98 c35 55 95 154 132 221 l68 123 34
-30 c69 -61 162 -34 239 71 19 26 39 61 45 79 l11 31 32 -35 c54 -58 118 -60
160 -3 15 20 21 47 24 97 l4 70 28 -38 c37 -51 77 -82 107 -82 18 0 28 9 40
37 25 60 11 112 -76 288 -96 193 -128 246 -220 368 l-70 93 11 45 c5 24 20 93
32 153 l21 108 39 -57 c82 -118 214 -201 317 -199 128 2 289 144 289 254 0 37
-26 50 -100 50 -80 0 -145 -19 -201 -58 -65 -45 -99 -93 -99 -139 l0 -34 -31
18 c-62 37 -124 107 -174 197 l-27 48 16 117 c22 164 38 427 34 556 -2 89 -6
110 -18 113 -9 1 -19 0 -23 -4z m-569 -359 c20 -9 48 -26 61 -38 29 -27 111
-136 111 -148 0 -14 -71 -11 -126 6 -60 18 -127 73 -155 127 -21 42 -18 53 16
61 37 9 55 7 93 -8z m-198 -416 c63 -10 220 -82 220 -101 0 -22 -56 -58 -108
-69 -107 -22 -213 10 -303 90 l-44 39 30 13 c33 13 114 37 130 38 6 1 39 -4
75 -10z m1340 -99 c0 -22 -39 -86 -72 -117 -61 -59 -171 -97 -222 -77 -21 8
-21 63 1 94 31 45 86 83 143 101 38 11 150 11 150 -1z m-740 -407 c-25 -92
-128 -307 -199 -413 -60 -90 -160 -190 -192 -190 -20 0 -21 4 -17 49 10 99
103 261 274 474 99 123 144 171 152 162 2 -2 -6 -38 -18 -82z m-147 -11 c-32
-37 -69 -85 -83 -106 -48 -73 -325 -284 -346 -263 -15 15 18 61 115 160 58 59
137 133 176 162 66 51 170 114 188 115 4 0 -18 -30 -50 -68z m367 -152 c52
-89 157 -300 175 -351 17 -47 20 -95 6 -103 -13 -8 -76 66 -105 122 -50 99
-186 455 -186 487 0 14 63 -76 110 -155z m-106 -10 c21 -58 49 -136 63 -174
30 -86 55 -264 43 -307 -22 -76 -67 -81 -110 -13 -37 58 -50 120 -57 264 -6
126 5 357 16 343 4 -4 25 -55 45 -113z m-110 -67 c-4 -63 -1 -158 6 -228 15
-146 15 -157 -8 -220 -20 -59 -103 -150 -145 -161 -70 -17 -121 77 -113 208 5
73 8 80 50 135 59 76 138 209 178 300 17 40 33 73 35 73 2 0 1 -48 -3 -107z
m-659 -1021 c14 -7 3 -20 -68 -73 -189 -142 -417 -219 -611 -206 -108 7 -118
11 -104 45 7 15 34 51 62 79 82 86 203 135 406 163 78 11 292 6 315 -8z m144
-219 c82 -252 116 -479 97 -636 -7 -52 -10 -57 -32 -57 -16 0 -43 17 -75 47
-63 59 -112 159 -135 275 -15 75 -15 100 -6 169 12 80 89 329 102 329 4 0 26
-57 49 -127z m-979 -392 c107 -26 230 -70 230 -82 0 -12 -159 -91 -250 -123
-186 -67 -303 -80 -434 -46 -93 23 -145 46 -221 95 -56 35 -57 37 -37 51 40
28 168 78 272 106 96 26 116 28 230 24 79 -3 156 -12 210 -25z m381 -218 c7
-38 13 -122 13 -188 0 -140 -17 -219 -75 -343 -40 -86 -125 -222 -139 -222
-37 0 -64 127 -57 275 5 130 23 197 79 309 33 66 148 236 159 236 4 0 13 -30
20 -67z m-1180 -192 c32 -33 39 -83 15 -116 -10 -14 -21 -17 -52 -12 -57 9
-88 37 -92 80 -6 74 73 104 129 48z m-255 -267 c55 -14 220 -90 230 -105 8
-14 -68 -23 -196 -23 -107 0 -133 3 -180 22 -58 23 -150 86 -150 101 0 16 101
30 173 25 37 -3 93 -12 123 -20z m379 -263 c-23 -88 -94 -238 -149 -315 -66
-92 -190 -221 -204 -212 -7 4 -12 28 -12 55 0 94 128 303 290 474 46 49 86 84
88 77 3 -7 -3 -42 -13 -79z m423 16 c7 -5 12 -32 12 -64 0 -44 -5 -58 -25 -78
-31 -32 -69 -32 -102 1 -26 26 -27 46 -4 107 18 46 80 64 119 34z"/>
<path d="M1004 3946 c-8 -21 67 -319 126 -496 97 -295 225 -583 375 -840 135
-233 314 -490 341 -490 32 0 22 32 -34 106 -257 344 -491 798 -638 1239 -20
61 -58 196 -84 300 -36 141 -52 191 -64 193 -9 2 -19 -4 -22 -12z"/>
<path d="M2012 2034 c-93 -46 -132 -136 -82 -189 32 -34 75 -32 133 5 55 35
87 82 87 128 0 30 -28 72 -49 72 -5 0 -15 2 -23 5 -7 3 -37 -7 -66 -21z m97
-23 c21 -21 19 -49 -6 -87 -21 -32 -85 -74 -114 -74 -35 0 -63 32 -54 62 14
47 98 116 143 118 6 0 21 -9 31 -19z"/>
<path d="M2240 1764 c-57 -13 -109 -29 -114 -34 -7 -7 5 -25 34 -55 42 -43 43
-45 26 -64 -26 -29 -10 -48 18 -22 16 15 25 18 33 10 17 -17 37 -1 22 17 -10
13 -1 26 52 80 55 55 61 66 49 78 -13 12 -30 10 -120 -10z m35 -64 l-49 -50
-33 32 c-18 17 -31 33 -29 36 7 6 109 30 136 31 22 1 20 -3 -25 -49z"/>
<path d="M2584 1491 c-68 -41 -117 -138 -93 -183 47 -89 162 -48 214 76 21 50
19 64 -14 97 -34 34 -64 37 -107 10z m90 -30 c26 -29 12 -74 -38 -127 -51 -53
-99 -61 -118 -19 -15 32 4 77 54 127 42 42 75 48 102 19z"/>
<path d="M2322 1453 c2 -10 10 -18 18 -18 8 0 16 8 18 18 2 12 -3 17 -18 17
-15 0 -20 -5 -18 -17z"/>
<path d="M2845 1316 c-65 -29 -122 -121 -110 -177 15 -68 96 -90 146 -40 55
55 25 141 -49 141 l-37 1 33 29 c18 17 41 30 52 30 27 0 63 -38 57 -60 -3 -11
1 -21 9 -24 10 -4 14 3 14 23 0 43 -9 60 -41 76 -34 18 -36 18 -74 1z m17
-113 c37 -33 7 -103 -44 -103 -52 0 -76 62 -38 100 24 24 57 26 82 3z"/>
<path d="M3236 1069 c-21 -17 -24 -24 -15 -30 8 -5 20 -2 31 8 22 20 63 10 78
-18 24 -43 -17 -71 -192 -132 -30 -10 -21 -20 53 -61 49 -26 74 -35 81 -28 7
7 -6 19 -41 36 -28 15 -51 30 -51 34 0 5 24 16 54 25 70 22 120 57 124 86 7
44 -7 72 -43 87 -44 18 -47 18 -79 -7z"/>
<path d="M2973 984 c-7 -19 11 -39 26 -30 16 10 13 33 -4 40 -9 3 -18 -1 -22
-10z"/>
<path d="M3530 952 c-49 -15 -101 -100 -103 -169 -2 -38 2 -49 26 -69 54 -47
111 -26 152 56 27 54 33 125 13 153 -15 19 -66 36 -88 29z m55 -36 c34 -24 14
-127 -34 -175 -29 -29 -67 -27 -87 4 -14 22 -15 31 -4 71 14 48 67 114 92 114
8 0 23 -6 33 -14z"/>
<path d="M3778 829 c-22 -12 -24 -39 -3 -39 8 0 15 4 15 10 0 5 11 12 25 16
51 13 87 -54 48 -88 -10 -8 -53 -34 -96 -57 -43 -24 -76 -48 -75 -53 4 -11
122 -58 146 -58 29 0 3 25 -40 39 -26 9 -50 19 -53 23 -4 4 25 23 63 42 103
52 128 101 77 151 -26 27 -75 33 -107 14z"/>
<path d="M4061 729 c-51 -48 -79 -170 -48 -210 53 -69 157 -38 157 46 0 47
-13 70 -48 84 -20 8 -36 9 -55 2 -31 -12 -32 -10 -12 29 26 50 91 54 113 7 15
-32 32 -35 32 -7 0 59 -93 91 -139 49z m63 -115 c36 -35 10 -104 -39 -104 -31
0 -55 25 -55 57 0 53 59 82 94 47z"/>
</g>
</svg>
